<svg xmlns="http://www.w3.org/2000/svg"  viewBox="0 0 24 24" width="96px" height="96px"><path d="M 12 4 C 8.8176326 4 6.2329513 5.8317127 4.4023438 8.0332031 C 2.5717362 10.234694 1.4212599 12.820114 1.0195312 14.800781 C 0.69428505 16.402963 0.9807133 17.661829 1.390625 18.492188 C 1.6683607 19.054797 1.9638136 19.37645 2.1679688 19.574219 A 1.0001 1.0001 0 0 0 2.1699219 19.576172 A 1.0001 1.0001 0 0 0 2.9472656 19.998047 A 1.0001 1.0001 0 0 0 3 20 L 21 20 A 1.0001 1.0001 0 0 0 21.833984 19.572266 C 22.038592 19.37366 22.332803 19.052438 22.609375 18.492188 C 23.019287 17.661828 23.305715 16.402963 22.980469 14.800781 C 22.578239 12.820399 21.428122 10.234684 19.597656 8.0332031 C 17.76719 5.8317221 15.182367 4 12 4 z M 8.9941406 7 C 9.2568281 6.9986406 9.5157812 7.1009687 9.7070312 7.2929688 L 12 9.5859375 L 14.292969 7.2929688 C 14.547969 7.0369687 14.919578 6.9381563 15.267578 7.0351562 C 15.615578 7.1321562 15.883703 7.4078125 15.970703 7.7578125 L 16.970703 11.757812 C 17.104703 12.292813 16.778188 12.836703 16.242188 12.970703 C 16.161187 12.990703 16.078047 13 15.998047 13 C 15.550047 13 15.143297 12.697188 15.029297 12.242188 L 14.457031 9.9550781 L 12.707031 11.707031 C 12.316031 12.098031 11.683969 12.098031 11.292969 11.707031 L 9.5429688 9.9550781 L 8.9707031 12.242188 C 8.8367031 12.779187 8.2918125 13.103703 7.7578125 12.970703 C 7.2208125 12.836703 6.8942969 12.292813 7.0292969 11.757812 L 8.0292969 7.7578125 C 8.1162969 7.4078125 8.3854219 7.1321563 8.7324219 7.0351562 C 8.8186719 7.0109063 8.9065781 7.0004531 8.9941406 7 z M 12 15 C 15.258701 15 17.23148 16.132028 18.451172 17.240234 C 18.740525 17.503139 18.976875 17.759069 19.179688 18 L 4.8203125 18 C 5.0231246 17.759069 5.2594751 17.503139 5.5488281 17.240234 C 6.76852 16.132028 8.7412995 15 12 15 z"/></svg>