<?xml version="1.0" encoding="iso-8859-1"?>
<!-- Uploaded to: SVG Repo, www.svgrepo.com, Generator: SVG Repo Mixer Tools -->
<svg version="1.1" id="Layer_1" xmlns="http://www.w3.org/2000/svg" xmlns:xlink="http://www.w3.org/1999/xlink" 
	 viewBox="0 0 512 512" xml:space="preserve">
<g>
	<rect x="23.273" y="69.818" style="fill:#DA3981;" width="465.455" height="372.364"/>
	<polygon style="fill:#DA3981;" points="116.364,69.818 23.273,69.818 23.273,162.909 116.364,162.909 209.455,162.909 
		209.455,69.818 	"/>
	<polygon style="fill:#DA3981;" points="116.364,256 23.273,256 23.273,349.091 116.364,349.091 209.455,349.091 209.455,256 	"/>
	<polygon style="fill:#DA3981;" points="209.455,162.909 116.364,162.909 116.364,256 209.455,256 302.545,256 302.545,162.909 	"/>
	<polygon style="fill:#DA3981;" points="209.455,349.091 116.364,349.091 116.364,442.182 209.455,442.182 302.545,442.182 
		302.545,349.091 	"/>
	<polygon style="fill:#DA3981;" points="302.545,69.818 209.455,69.818 209.455,162.909 302.545,162.909 395.636,162.909 
		395.636,69.818 	"/>
	<polygon style="fill:#DA3981;" points="302.545,256 209.455,256 209.455,349.091 302.545,349.091 395.636,349.091 395.636,256 	"/>
	<polygon style="fill:#DA3981;" points="395.636,162.909 302.545,162.909 302.545,256 395.636,256 488.727,256 488.727,162.909 	"/>
	<polygon style="fill:#DA3981;" points="395.636,349.091 302.545,349.091 302.545,442.182 395.636,442.182 488.727,442.182 
		488.727,349.091 	"/>
</g>
<path style="fill:#A91E62;" d="M488.727,46.545h-93.091H209.455H23.273C10.42,46.545,0,56.965,0,69.818v93.091V256v93.091v93.091
	c0,12.853,10.42,23.273,23.273,23.273h93.091h186.182h186.182c12.853,0,23.273-10.42,23.273-23.273v-93.091V256v-93.091V69.818
	C512,56.965,501.58,46.545,488.727,46.545z M302.545,325.818h-69.818v-46.545h69.818h69.818v46.545H302.545z M116.364,325.818
	H46.545v-46.545h69.818h69.818v46.545H116.364z M209.455,186.182h69.818v46.545h-69.818h-69.818v-46.545H209.455z M395.636,186.182
	h69.818v46.545h-69.818h-69.818v-46.545H395.636z M93.091,232.727H46.545v-46.545h46.545V232.727z M418.909,279.273h46.545v46.545
	h-46.545V279.273z M465.455,139.636h-46.545V93.091h46.545V139.636z M372.364,139.636h-69.818h-69.818V93.091h139.636V139.636z
	 M46.545,93.091h139.636v46.545h-69.818H46.545V93.091z M46.545,372.364h46.545v46.545H46.545V372.364z M139.636,372.364h69.818
	h69.818v46.545H139.636V372.364z M465.455,418.909H325.818v-46.545h69.818h69.818V418.909z"/>
</svg>