<?xml version="1.0" encoding="iso-8859-1"?>
<!-- Uploaded to: SVG Repo, www.svgrepo.com, Generator: SVG Repo Mixer Tools -->
<svg height="800px" width="800px" version="1.1" id="Layer_1" xmlns="http://www.w3.org/2000/svg" xmlns:xlink="http://www.w3.org/1999/xlink" 
	 viewBox="0 0 512 512" xml:space="preserve">
<path style="fill:#D5F4FA;" d="M505.572,42.986c-4.115-4.115-9.697-6.428-15.517-6.428L21.941,36.585
	C9.823,36.586,0,46.409,0,58.527v263.314c0,12.118,9.825,21.943,21.943,21.943h468.114c12.118,0,21.943-9.825,21.943-21.943V58.501
	C512,52.682,509.689,47.1,505.572,42.986z"/>
<path style="fill:#C0FCFF;" d="M505.572,42.986c-4.115-4.115-9.697-6.428-15.517-6.428L256,36.571v307.213h234.057
	c12.118,0,21.943-9.825,21.943-21.943V58.501C512,52.682,509.689,47.1,505.572,42.986z"/>
<g>
	<path style="fill:#89D2E8;" d="M402.286,212.107H109.714c-12.118,0-21.943,9.825-21.943,21.943s9.825,21.943,21.943,21.943h292.571
		c12.118,0,21.943-9.825,21.943-21.943S414.404,212.107,402.286,212.107z"/>
	<path style="fill:#89D2E8;" d="M402.286,36.564H109.714c-12.118,0-21.943,9.825-21.943,21.943v87.792
		c0,12.118,9.825,21.943,21.943,21.943h292.571c12.118,0,21.943-9.825,21.943-21.943V58.507
		C424.229,46.389,414.404,36.564,402.286,36.564z"/>
</g>
<g>
	<path style="fill:#C0FCFF;" d="M36.571,475.442c-12.118,0-21.943-9.825-21.943-21.943v-43.886c0-12.118,9.825-21.943,21.943-21.943
		s21.943,9.825,21.943,21.943v43.886C58.514,465.617,48.69,475.442,36.571,475.442z"/>
	<path style="fill:#C0FCFF;" d="M124.343,475.442c-12.118,0-21.943-9.825-21.943-21.943v-43.886
		c0-12.118,9.825-21.943,21.943-21.943s21.943,9.825,21.943,21.943v43.886C146.286,465.617,136.461,475.442,124.343,475.442z"/>
	<path style="fill:#C0FCFF;" d="M212.114,475.442c-12.118,0-21.943-9.825-21.943-21.943v-43.886
		c0-12.118,9.825-21.943,21.943-21.943s21.943,9.825,21.943,21.943v43.886C234.057,465.617,224.233,475.442,212.114,475.442z"/>
</g>
<g>
	<path style="fill:#7AC0DE;" d="M299.886,475.442c-12.118,0-21.943-9.825-21.943-21.943v-43.886
		c0-12.118,9.825-21.943,21.943-21.943s21.943,9.825,21.943,21.943v43.886C321.829,465.617,312.004,475.442,299.886,475.442z"/>
	<path style="fill:#7AC0DE;" d="M387.657,475.442c-12.118,0-21.943-9.825-21.943-21.943v-43.886
		c0-12.118,9.825-21.943,21.943-21.943c12.118,0,21.943,9.825,21.943,21.943v43.886C409.6,465.617,399.775,475.442,387.657,475.442z
		"/>
	<path style="fill:#7AC0DE;" d="M475.429,475.442c-12.118,0-21.943-9.825-21.943-21.943v-43.886
		c0-12.118,9.825-21.943,21.943-21.943c12.118,0,21.943,9.825,21.943,21.943v43.886
		C497.371,465.617,487.547,475.442,475.429,475.442z"/>
	<path style="fill:#7AC0DE;" d="M402.286,255.993c12.118,0,21.943-9.825,21.943-21.943s-9.825-21.943-21.943-21.943H256v43.886
		H402.286z"/>
	<path style="fill:#7AC0DE;" d="M424.229,146.299V58.507c0-12.118-9.825-21.943-21.943-21.943H256v131.678h146.286
		C414.404,168.242,424.229,158.417,424.229,146.299z"/>
</g>
</svg>